<svg xmlns="http://www.w3.org/2000/svg" viewBox="0 0 283.46 123.19"><defs><style>.cls-1{fill:#0064b4;}</style></defs><title>ZBT</title><g id="WORTMARKE"><polygon class="cls-1" points="143.68 47.89 143.68 41.05 102.61 41.05 102.61 47.89 132.06 47.89 102.61 75.27 102.61 82.13 143.68 82.13 143.68 75.27 114.23 75.27 143.68 47.89"/><polygon class="cls-1" points="201.31 41.05 201.31 47.9 217.83 47.9 217.83 82.12 225.53 82.12 225.53 47.9 242.38 47.9 242.38 41.05 201.31 41.05"/><path class="cls-1" d="M179,58.16H161.23V47.9H179c5.75,0,8.08,1.71,8.08,5.14s-2.31,5.13-8.08,5.13m0,17.11H161.23V65H179c5.75,0,8.08,1.71,8.08,5.14s-2.31,5.13-8.08,5.13m12-13.72A11.13,11.13,0,0,0,194.59,53c0-8-6.42-12-13.23-12H153.51V82.12h27.84c6.81,0,13.23-4,13.23-12A11.14,11.14,0,0,0,191,61.56"/></g><g id="BILDMARKE"><rect class="cls-1" x="41.07" y="78.7" width="47.93" height="6.85"/><rect class="cls-1" x="77.02" y="37.63" width="11.98" height="6.85"/><rect class="cls-1" x="53.06" y="64.98" width="35.95" height="6.85"/><rect class="cls-1" x="65.04" y="51.31" width="23.96" height="6.85"/></g></svg>